<svg width="144" height="144" viewBox="0 0 144 144" fill="none" xmlns="http://www.w3.org/2000/svg">
<g clip-path="url(#clip0_2023_190036)">
<path fill-rule="evenodd" clip-rule="evenodd" d="M144 72.9996C144 62.7597 139.04 54.6797 129.56 54.6797C120.04 54.6797 114.28 62.7597 114.28 72.9197C114.28 84.9599 121.08 91.0397 130.84 91.0397C135.6 91.0397 139.2 89.9597 141.92 88.4396V80.4395C139.2 81.7996 136.08 82.6396 132.12 82.6396C128.24 82.6396 124.8 81.2796 124.36 76.5595H143.92C143.92 76.0395 144 73.9595 144 72.9996ZM124.24 69.1995C124.24 64.6794 127 62.7993 129.52 62.7993C131.96 62.7993 134.56 64.6794 134.56 69.1995H124.24Z" fill="#635BFF"/>
<path fill-rule="evenodd" clip-rule="evenodd" d="M98.8403 54.6797C94.9204 54.6797 92.4002 56.5196 91.0002 57.7998L90.4801 55.3198H81.6802V101.96L91.6802 99.8399L91.7201 88.5201C93.1601 89.5601 95.2801 91.04 98.8 91.04C105.96 91.04 112.48 85.2799 112.48 72.6C112.44 60.9997 105.84 54.6797 98.8403 54.6797ZM96.4402 82.2397C94.08 82.2397 92.6803 81.3996 91.7201 80.3596L91.6802 65.5195C92.7202 64.3594 94.1602 63.5595 96.4402 63.5595C100.08 63.5595 102.6 67.6395 102.6 72.8795C102.6 78.2396 100.12 82.2397 96.4402 82.2397Z" fill="#635BFF"/>
<path fill-rule="evenodd" clip-rule="evenodd" d="M67.9199 52.3199L77.9599 50.16V42.04L67.9199 44.16V52.3199Z" fill="#635BFF"/>
<path d="M77.9599 55.3594H67.9199V90.3593H77.9599V55.3594Z" fill="#635BFF"/>
<path fill-rule="evenodd" clip-rule="evenodd" d="M57.1599 58.3196L56.5198 55.3596H47.8799V90.3595H57.8799V66.6395C60.2398 63.5594 64.2398 64.1196 65.4798 64.5595V55.3596C64.1999 54.8798 59.5198 53.9998 57.1599 58.3196Z" fill="#635BFF"/>
<path fill-rule="evenodd" clip-rule="evenodd" d="M37.1599 46.6797L27.3998 48.7597L27.3599 80.7996C27.3599 86.7197 31.7998 91.0797 37.7199 91.0797C41 91.0797 43.3998 90.4796 44.7199 89.7596V81.6397C43.44 82.1597 37.12 83.9995 37.12 78.0797V63.8797H44.7199V55.3598H37.12L37.1599 46.6797Z" fill="#635BFF"/>
<path fill-rule="evenodd" clip-rule="evenodd" d="M10.1201 65.5195C10.1201 63.9595 11.4 63.3596 13.52 63.3596C16.5599 63.3596 20.4 64.2795 23.4401 65.9197V56.5196C20.1201 55.1997 16.84 54.6797 13.52 54.6797C5.40007 54.6797 0 58.9196 0 65.9996C0 77.0396 15.2001 75.2796 15.2001 80.0396C15.2001 81.8797 13.6002 82.4796 11.3601 82.4796C8.04006 82.4796 3.8001 81.1195 0.440139 79.2797V88.7996C4.16009 90.3996 7.92025 91.0796 11.3601 91.0796C19.68 91.0796 25.4001 86.9595 25.4001 79.7997C25.3602 67.8796 10.1201 69.9996 10.1201 65.5195Z" fill="#635BFF"/>
</g>
<defs>
<clipPath id="clip0_2023_190036">
<rect width="144" height="144" fill="white"/>
</clipPath>
</defs>
</svg>
