<svg width="20" height="20" viewBox="0 0 20 20" fill="none" xmlns="http://www.w3.org/2000/svg">
<g clip-path="url(#clip0_5513_15159)">
<path fill-rule="evenodd" clip-rule="evenodd" d="M43.2275 5.29402L43.0387 4.39777H40.4162V15.0253H43.4462V7.81277C44.1631 6.87527 45.3725 7.05777 45.7575 7.17715V4.39902C45.3537 4.25402 43.9369 3.98777 43.2275 5.29277V5.29402ZM37.1462 1.76527L34.1862 2.39402L34.1737 12.1203C34.1737 13.914 35.5225 15.2409 37.3225 15.2409C38.3131 15.2409 39.045 15.0521 39.4506 14.839V12.3703C39.0619 12.5253 37.1487 13.0815 37.1487 11.2953V6.98277H39.4506V4.39715H37.1487L37.1462 1.76527ZM28.9375 7.48152C28.9375 7.00777 29.3312 6.82527 29.9675 6.82527C31.0207 6.84807 32.0542 7.11554 32.9862 7.60652V4.75027C32.0252 4.37239 31.0001 4.18393 29.9675 4.19527C27.515 4.19527 25.8694 5.48027 25.8694 7.62527C25.8694 10.9815 30.4787 10.4365 30.4787 11.8834C30.4787 12.4496 29.9912 12.6246 29.3144 12.6246C28.3106 12.6246 27.0144 12.2096 25.9975 11.6559V14.5496C27.0443 15.005 28.1728 15.2425 29.3144 15.2478C31.835 15.2478 33.5725 14.0028 33.5725 11.8196C33.5725 8.19715 28.9369 8.84465 28.9369 7.48027L28.9375 7.48152ZM8.675 5.94715C8.675 5.0909 9.3875 4.75965 10.5387 4.75965C12.4441 4.80081 14.3138 5.2846 16 6.17277V1.00402C14.2613 0.320719 12.4068 -0.0199086 10.5387 0.000898845C6.10125 0.000898845 3.125 2.32527 3.125 6.20652C3.125 12.279 11.4637 11.2928 11.4637 13.9103C11.4637 14.934 10.5887 15.2515 9.3575 15.2515C7.54187 15.2515 5.19688 14.5003 3.3575 13.5003V18.7365C5.25126 19.5605 7.29289 19.9905 9.35812 20.0003C13.9187 20.0003 17.0625 17.7471 17.0625 13.7984C17.0625 7.24465 8.675 8.41527 8.675 5.9484V5.94715Z" fill="white"/>
</g>
<defs>
<clipPath id="clip0_5513_15159">
<rect width="20" height="20" fill="white"/>
</clipPath>
</defs>
</svg>
